<?xml version="1.0" encoding="UTF-8" standalone="no"?>
<!DOCTYPE svg PUBLIC "-//W3C//DTD SVG 1.1//EN" "http://www.w3.org/Graphics/SVG/1.1/DTD/svg11.dtd">
<svg width="100%" height="100%" viewBox="0 0 555 143" version="1.1" xmlns="http://www.w3.org/2000/svg" xmlns:xlink="http://www.w3.org/1999/xlink" xml:space="preserve" xmlns:serif="http://www.serif.com/" style="fill-rule:evenodd;clip-rule:evenodd;stroke-linejoin:round;stroke-miterlimit:2;">
    <g transform="matrix(1,0,0,1,-1847.17,-2660.29)">
        <g transform="matrix(0.795735,0,0,0.916229,972.777,528.673)">
            <path id="Controller-Of-Examination-Signature" serif:id="Controller Of Examination Signature" d="M1437.74,2392.51C1440.41,2386.5 1443.14,2381.07 1445.8,2376.2C1455.72,2358.04 1464.69,2347.82 1466.66,2344.96C1467.72,2343.44 1472.9,2338.22 1479.48,2333.88C1484.65,2330.47 1490.69,2327.63 1496.21,2327.32C1504.92,2326.82 1513.28,2332.17 1514.88,2352.05C1515.41,2357.08 1516,2361.9 1516.97,2366.17C1517.72,2369.47 1518.69,2372.42 1520.07,2374.85C1520.84,2376.18 1521.52,2378.25 1522.12,2380.72C1556.84,2376.52 1584.82,2374.25 1600.2,2375.05C1613.95,2374.62 1623.63,2375.72 1630.25,2377.74C1636.12,2379.53 1639.78,2382.09 1641.9,2384.96C1645.46,2389.76 1644.87,2395.66 1642.22,2401.34C1637.83,2410.76 1627.94,2419.5 1627.33,2420.04C1626.88,2420.45 1618.83,2427.77 1610.28,2432.31C1604.7,2435.28 1598.86,2436.91 1594.45,2435.66C1591.75,2434.89 1589.4,2433.16 1587.86,2429.94C1586.33,2426.73 1585.6,2421.77 1586.28,2414.47C1586.75,2409.39 1586.65,2405.78 1586.08,2403.34C1585.91,2402.59 1585.7,2401.97 1585.43,2401.48C1585.24,2401.14 1585.1,2400.86 1584.84,2400.74C1584.55,2400.62 1584.25,2400.8 1583.89,2400.95C1582.82,2401.38 1581.7,2402.2 1580.56,2403.21C1576.17,2407.09 1571.77,2413.76 1570.96,2417.16C1570.44,2419.32 1569.41,2420.19 1568.97,2420.42C1567.79,2421.02 1566.64,2420.98 1565.53,2420.15C1565.09,2419.82 1564.31,2418.67 1563.96,2416.81C1563.55,2414.63 1563.24,2410.99 1563.02,2407.7C1561.56,2409.51 1560.02,2411.52 1558.84,2413.39C1558.19,2414.42 1557.65,2415.4 1557.34,2416.26C1557.2,2416.65 1557.05,2416.98 1557.09,2417.25C1557.1,2417.29 1557.11,2417.33 1557.12,2417.37C1557.82,2419.57 1558.23,2420.54 1558.4,2420.96C1559.24,2423.12 1557.81,2423.76 1557.44,2423.98C1557.11,2424.17 1556.61,2424.39 1555.83,2424.39C1555.61,2424.39 1553.75,2424.23 1553.05,2422.33C1552.84,2421.73 1552.49,2420.6 1552.09,2419.11C1552.03,2418.94 1551.97,2418.76 1551.91,2418.58C1551.85,2418.39 1551.81,2418.18 1551.78,2417.96C1551.78,2417.94 1551.77,2417.92 1551.77,2417.9C1551.15,2415.5 1550.45,2412.43 1549.88,2409.25C1549.28,2411.64 1548.77,2413.69 1548.48,2414.61C1547.84,2416.6 1547.27,2417.72 1546.87,2418.35C1546.34,2419.2 1545.78,2419.66 1545.3,2419.92C1543.92,2420.79 1539.26,2423.36 1534.56,2421.7C1531.5,2420.62 1528.09,2417.67 1526.06,2410.43C1525.73,2409.26 1525.24,2408.22 1524.89,2407.55C1524.43,2408.11 1523.8,2408.93 1523.39,2409.67C1520.65,2414.65 1518.31,2422.68 1517.7,2423.8C1516.98,2425.14 1515.77,2425.21 1515.16,2425.18C1514.53,2425.14 1513.34,2424.93 1512.82,2423.56C1512.65,2423.13 1512.48,2421.83 1512.42,2419.93C1512.37,2418.58 1512.35,2416.87 1512.33,2414.94L1507.23,2418.14C1507.59,2418.03 1507.9,2417.92 1508.12,2417.85C1511.43,2416.69 1512.44,2419.23 1511.93,2420.37C1511.84,2420.59 1511.56,2421.04 1510.85,2421.66C1509.82,2422.58 1507.2,2423.8 1503.99,2424.96C1497.49,2427.32 1488.5,2429.73 1488.5,2429.73C1487.42,2430.02 1486.26,2429.59 1485.75,2428.7C1485.25,2427.83 1485.55,2426.76 1486.47,2426.18C1486.47,2426.18 1492.58,2422.37 1500.2,2417.6C1499.94,2415.22 1499.48,2411.36 1498.94,2406.8C1478.13,2419.17 1455.39,2433.45 1453.88,2434.15C1453.01,2434.55 1447.52,2437.37 1441.94,2438.33C1438.51,2438.93 1435.06,2438.8 1432.37,2437.4C1429.79,2436.05 1427.75,2433.53 1427.25,2429.05C1426.78,2424.87 1427.66,2418.75 1430.77,2409.98C1432.21,2405.93 1433.69,2402.08 1435.2,2398.43C1432.73,2398.81 1430.25,2399.19 1427.77,2399.58C1324.98,2415.62 1210.32,2437.07 1171.77,2446.23C1142.24,2453.23 1121.84,2460.7 1111.47,2466.96C1108.35,2468.85 1106.18,2470.57 1105.11,2472.15C1104.47,2473.1 1104.35,2473.93 1105.17,2474.57C1107.28,2476.24 1112,2477.08 1119.34,2477.32C1132.72,2477.76 1154.11,2475.71 1184.05,2470.16L1184.05,2470.16C1186.83,2469.64 1189.61,2469.09 1192.36,2468.48C1195.12,2467.87 1197.86,2467.22 1200.59,2466.52L1200.6,2466.52C1222.5,2460.96 1292.93,2454.96 1378,2449.37C1554.05,2437.79 1792.99,2427.9 1792.99,2427.9C1794.23,2427.85 1795.28,2428.68 1795.34,2429.76C1795.4,2430.83 1794.44,2431.74 1793.2,2431.8C1793.2,2431.8 1554.33,2441.55 1378.34,2453.25C1293.75,2458.87 1223.72,2464.93 1201.94,2470.49C1199.16,2471.21 1196.36,2471.88 1193.55,2472.51C1190.73,2473.14 1187.9,2473.72 1185.06,2474.25C1154.58,2480 1132.79,2482.1 1119.15,2481.7C1110.08,2481.43 1104.36,2479.91 1101.74,2477.87C1100.25,2476.7 1099.52,2475.34 1099.43,2473.85C1099.33,2472.26 1100.05,2470.41 1101.82,2468.46C1108.36,2461.26 1131.74,2450.97 1170.32,2441.68C1208.92,2432.4 1323.69,2410.41 1426.66,2394.24C1430.37,2393.65 1434.06,2393.08 1437.74,2392.51ZM1498.41,2402.34C1497.92,2398.2 1497.4,2393.75 1496.92,2389.42C1479.06,2391.84 1459.99,2394.62 1440.33,2397.64C1438.54,2401.86 1436.78,2406.36 1435.09,2411.13C1431.33,2421.74 1430.88,2428.03 1432.5,2431.6C1433.93,2434.77 1437.31,2435.05 1440.6,2434.55C1445.76,2433.77 1450.95,2431.05 1451.75,2430.68C1453.3,2429.96 1477.27,2414.86 1498.41,2402.34ZM1504.6,2414.86C1507.14,2413.26 1509.76,2411.63 1512.29,2410.05C1512.26,2406.47 1512.21,2402.61 1512.07,2399.13C1509.3,2400.72 1506.37,2402.42 1503.37,2404.18C1503.85,2408.34 1504.28,2412.06 1504.6,2414.86ZM1543.99,2420.21L1542.21,2416.34C1542.21,2416.34 1542.22,2416.32 1542.23,2416.3C1542.27,2416.27 1542.29,2416.25 1542.29,2416.25C1542.27,2416.27 1542.25,2416.28 1542.23,2416.3C1542.36,2416.07 1542.95,2414.99 1543.45,2413.41C1544.2,2411.04 1546.35,2401.29 1547.7,2397.25C1548.21,2395.73 1548.86,2394.79 1549.18,2394.51C1549.88,2393.93 1550.62,2393.81 1551.22,2393.83C1551.97,2393.86 1552.81,2394.1 1553.43,2394.95C1553.66,2395.25 1554.07,2396.27 1554.03,2398.27C1553.98,2401.45 1554.54,2405.51 1555.28,2409.34C1557.29,2406.47 1559.78,2403.5 1561.42,2401.49C1562,2400.78 1562.61,2399.95 1562.76,2399.75C1563.58,2397.52 1567.84,2395.62 1568.1,2400.5C1568.12,2400.79 1568.15,2401.43 1568.19,2402.31C1568.28,2404.08 1568.43,2406.84 1568.65,2409.54C1571.36,2405.16 1575.33,2400.34 1579.02,2397.88C1582.04,2395.86 1585.04,2395.38 1587.35,2396.37C1588.77,2396.99 1590.12,2398.21 1591.01,2400.41C1592.09,2403.1 1592.59,2407.7 1591.94,2414.87C1591.38,2421.07 1591.84,2425.3 1593.15,2428.03C1593.9,2429.6 1594.91,2430.54 1596.23,2430.91C1597.44,2431.25 1598.82,2431.14 1600.27,2430.81C1602.52,2430.32 1604.9,2429.28 1607.25,2428.02C1615.42,2423.66 1623.09,2416.54 1623.09,2416.54C1623.11,2416.52 1623.13,2416.5 1623.15,2416.48C1623.15,2416.48 1632.63,2408.28 1636.73,2399.42C1638.59,2395.38 1639.42,2391.18 1636.88,2387.77C1635.33,2385.68 1632.55,2383.96 1628.27,2382.67C1622.1,2380.8 1613.09,2379.89 1600.28,2380.33C1600.18,2380.34 1600.08,2380.33 1599.98,2380.33C1584.87,2379.53 1557.37,2381.84 1523.21,2386.02C1523.35,2386.77 1523.48,2387.53 1523.61,2388.3C1526.92,2386.87 1529.34,2386.34 1531.03,2386.36C1532.98,2386.38 1534.29,2387.01 1535.18,2387.92C1536.51,2389.28 1536.82,2391.62 1536.33,2394.1C1535.63,2397.57 1533.61,2401.32 1533.61,2401.32C1533.44,2401.62 1533.19,2401.88 1532.87,2402.08L1528.9,2404.57C1529.64,2405.55 1530.38,2407.1 1531.03,2409.37C1532.16,2413.34 1533.61,2415.67 1535.26,2416.88C1538.31,2419.12 1541.75,2416.66 1542.23,2416.3C1541.46,2416.92 1541.19,2417.88 1541.56,2418.74C1541.94,2419.62 1542.91,2420.21 1543.99,2420.21ZM1545.5,2419.79C1545.57,2419.74 1545.64,2419.7 1545.7,2419.65C1545.7,2419.65 1545.63,2419.7 1545.5,2419.79ZM1567.81,2401.44C1567.99,2401.22 1568.09,2400.9 1568.09,2400.47C1568.09,2400.63 1568.02,2400.98 1567.81,2401.44ZM1442.94,2391.71C1461.46,2388.89 1479.44,2386.29 1496.33,2384.02C1495.81,2379.09 1495.38,2374.61 1495.16,2371.35C1494.99,2368.81 1494.96,2366.95 1495.08,2366.1C1495.34,2364.1 1497.09,2363.76 1497.68,2363.76C1498.15,2363.75 1499.15,2363.95 1500.18,2364.87C1501.32,2365.88 1503.32,2368.3 1505.52,2371.29C1507.89,2374.53 1510.5,2378.44 1512.54,2381.91C1514.26,2381.69 1515.97,2381.47 1517.66,2381.26C1517.18,2379.31 1516.66,2377.66 1516.05,2376.58C1514.5,2373.88 1513.39,2370.6 1512.56,2366.92C1511.56,2362.53 1510.95,2357.57 1510.4,2352.4C1510.4,2352.38 1510.39,2352.37 1510.39,2352.35C1509.77,2344.57 1508.16,2339.27 1505.81,2335.85C1503.35,2332.28 1500.08,2331.01 1496.51,2331.22C1491.76,2331.49 1486.65,2334.06 1482.2,2336.99C1476.24,2340.93 1471.48,2345.6 1470.52,2346.98C1468.57,2349.8 1459.68,2359.91 1449.87,2377.88C1447.59,2382.06 1445.25,2386.67 1442.94,2391.71ZM1511.8,2394.56C1511.65,2392.78 1511.46,2391.24 1511.21,2390.09C1511.07,2389.45 1510.74,2388.62 1510.28,2387.65C1507.43,2388.02 1504.55,2388.39 1501.63,2388.78C1502.03,2392.42 1502.44,2396.15 1502.85,2399.72C1505.97,2397.89 1508.98,2396.15 1511.8,2394.56ZM1517.21,2406.97C1518.51,2406.16 1519.75,2405.38 1520.92,2404.66C1521.12,2404.42 1521.32,2404.21 1521.52,2404.03C1521.63,2403.93 1521.74,2403.83 1521.85,2403.74C1521.58,2402.86 1521.32,2401.76 1521.08,2400.51C1520.76,2398.82 1520.43,2396.8 1520.09,2394.65C1519.05,2395.21 1517.97,2395.81 1516.85,2396.43C1517.05,2399.66 1517.14,2403.37 1517.21,2406.97ZM1524.28,2392.46C1524.7,2395.19 1525.11,2397.78 1525.51,2399.87C1525.63,2400.5 1525.74,2401.07 1525.84,2401.58C1528.24,2400.08 1529.7,2399.16 1529.7,2399.16C1530.2,2398.17 1531.36,2395.72 1531.82,2393.41C1531.95,2392.75 1532.03,2392.1 1532,2391.51C1531.97,2391.11 1531.94,2390.74 1531.69,2390.49C1531.4,2390.18 1530.86,2390.27 1530.06,2390.4C1528.61,2390.62 1526.73,2391.28 1524.28,2392.46ZM1518.77,2386.57C1517.6,2386.71 1516.42,2386.86 1515.23,2387.01C1515.62,2387.9 1515.9,2388.67 1516.04,2389.28C1516.2,2390.03 1516.35,2390.93 1516.47,2391.95C1517.49,2391.39 1518.47,2390.86 1519.41,2390.36C1519.2,2389.08 1518.99,2387.81 1518.77,2386.57ZM1501.07,2383.39C1503.21,2383.11 1505.34,2382.83 1507.44,2382.56C1505.18,2378.83 1502.34,2374.72 1500.01,2371.68C1500.23,2374.79 1500.61,2378.89 1501.07,2383.39Z"/>
        </g>
    </g>
</svg>
