<?xml version="1.0" encoding="UTF-8" standalone="no"?>
<!DOCTYPE svg PUBLIC "-//W3C//DTD SVG 1.1//EN" "http://www.w3.org/Graphics/SVG/1.1/DTD/svg11.dtd">
<svg width="100%" height="100%" viewBox="0 0 397 79" version="1.1" xmlns="http://www.w3.org/2000/svg" xmlns:xlink="http://www.w3.org/1999/xlink" xml:space="preserve" xmlns:serif="http://www.serif.com/" style="fill-rule:evenodd;clip-rule:evenodd;stroke-linejoin:round;stroke-miterlimit:2;">
    <g transform="matrix(1,0,0,1,-2011.66,-1104.95)">
        <g transform="matrix(0.774516,0,0,0.774516,1291.69,1020.16)">
            <g id="Student-Signature" serif:id="Student Signature">
                <path d="M933.274,168.443C932.546,168.5 931.909,167.956 931.851,167.229C931.794,166.501 932.338,165.864 933.066,165.806C933.066,165.806 958.858,163.293 993.966,159.648C1006.55,158.341 1020.33,156.889 1034.54,155.388C1043.45,154.448 1052.52,153.485 1061.59,152.541C1075.36,151.109 1089.09,149.693 1102.14,148.23C1132.74,144.799 1159.52,141.238 1173.99,137.597C1174.7,137.41 1175.42,137.83 1175.61,138.536C1175.8,139.241 1175.38,139.966 1174.67,140.153C1164.16,143.11 1147.12,146.296 1126.79,149.377C1112.03,151.614 1095.54,153.82 1078.57,155.862C1070.9,156.785 1063.13,157.68 1055.38,158.498C1043.58,159.742 1031.83,160.847 1020.53,161.855C1008.17,162.958 996.362,163.909 985.648,164.739C954.966,167.115 933.274,168.443 933.274,168.443Z" style="fill:rgb(1,18,174);"/>
                <path d="M967.346,179.959C968.191,176.385 968.471,173.821 968.471,173.821C968.528,173.093 969.166,172.549 969.893,172.607C970.621,172.665 971.165,173.302 971.107,174.03C971.107,174.03 970.889,178.167 969.715,183.41C969.767,183.535 969.805,183.665 969.83,183.798C970.446,187.636 971.078,192.026 971.62,196.024C972.525,202.697 973.19,208.258 973.19,208.258C973.297,208.98 972.797,209.653 972.075,209.76C971.353,209.867 970.68,209.368 970.573,208.646C970.573,208.646 969.354,201.75 967.885,194.143C967.702,193.195 967.515,192.236 967.326,191.278C966.989,192.121 966.623,192.956 966.224,193.773C964.017,198.299 960.796,202.221 956.391,204.205C951.136,206.535 945.474,207.176 940.808,206.228C938.223,205.703 935.935,204.671 934.122,203.214C930.223,200.08 928.318,194.927 930.668,187.739C930.717,187.591 930.779,187.447 930.854,187.31C932.306,184.691 934.519,182.423 937.237,180.629C940.77,178.298 945.132,176.729 949.504,176.063C954.21,175.347 958.917,175.655 962.61,177.061C964.46,177.766 966.071,178.731 967.346,179.959ZM965.994,184.783C965.071,182.989 963.302,181.84 961.16,181.127C958.063,180.097 954.174,180.076 950.309,180.797C944.283,181.921 938.231,184.908 935.597,189.632C933.764,195.256 935.786,198.984 939.674,200.663C943.741,202.42 949.407,202.252 954.682,200.144C958.301,198.724 960.929,195.584 962.895,192.04C964.193,189.699 965.208,187.18 965.994,184.783Z" style="fill:rgb(1,18,174);"/>
                <path d="M993.762,190.715C993.771,191.646 993.647,192.604 993.313,193.626C992.883,194.942 991.995,196.279 990.513,197.815C989.775,198.441 988.715,198.515 987.898,197.997C986.096,197.037 984.891,195.939 984.166,194.89C983.119,193.375 983.066,191.779 983.65,190.171C983.926,189.515 984.456,189 985.119,188.742C985.119,188.742 986.404,188.205 988.277,187.55C989.232,187.216 990.334,186.858 991.497,186.513C996.053,185.162 1001.33,183.846 1001.33,183.846C1002.01,183.581 1002.77,183.919 1003.04,184.6C1003.3,185.28 1002.96,186.047 1002.28,186.311C1002.28,186.311 997.891,188.688 993.762,190.715ZM989.786,192.54C989.439,192.686 989.115,192.819 988.819,192.939C988.917,193.039 989.016,193.135 989.1,193.219C989.114,193.233 989.127,193.247 989.141,193.26C989.391,193.022 989.606,192.783 989.786,192.54ZM988.34,192.35L988.488,192.206C988.504,192.173 988.446,192.129 988.411,192.138C988.303,192.166 988.292,192.244 988.34,192.35Z" style="fill:rgb(1,18,174);"/>
                <path d="M1034.88,165.43C1038.67,163.772 1042.18,165.388 1042.18,165.388C1043,165.746 1043.46,166.632 1043.28,167.511C1043.09,168.389 1042.32,169.018 1041.42,169.018L1037.25,168.891C1036.78,169.057 1036.29,169.309 1035.81,169.678C1034.65,170.572 1033.63,172.134 1032.86,174.646C1031.4,179.28 1032.73,186.497 1036.31,190.539C1039.21,193.816 1043.74,194.338 1049.88,189.238C1049.96,189.173 1050.04,189.113 1050.13,189.058C1050.62,188.748 1051.1,188.433 1051.56,188.115C1051.81,186.086 1052.53,184.372 1053.47,182.931C1056.64,178.082 1062.64,176.432 1062.64,176.432C1063.45,176.224 1064.32,176.497 1064.87,177.136C1065.41,177.775 1065.55,178.67 1065.22,179.444C1065.22,179.444 1063.81,183.01 1059.93,187.287C1058.62,188.72 1057.04,190.227 1055.13,191.705C1055.18,192.103 1055.24,192.515 1055.34,192.941C1056.98,195.546 1058.19,196.873 1059.36,197.308C1060.56,197.755 1061.56,197.084 1062.75,196.383C1063.36,195.991 1064.18,196.172 1064.57,196.788C1064.96,197.404 1064.78,198.222 1064.16,198.614C1062.25,199.922 1060.49,200.736 1058.42,200.103C1056.79,199.606 1054.84,198.057 1052.35,194.521C1052.24,194.365 1052.17,194.193 1052.12,194.012C1052.12,194.001 1052.11,193.989 1052.11,193.978C1045.58,199.051 1040.14,199.137 1036.12,196.992C1033.03,195.346 1030.66,192.238 1029.23,188.556C1027.28,183.518 1027.05,177.451 1028.56,173.205C1029.24,171.322 1030.04,169.848 1030.9,168.697L1022.67,168.447C1021.94,168.447 1021.35,167.854 1021.35,167.125C1021.35,166.395 1021.94,165.802 1022.67,165.802L1034.88,165.43Z" style="fill:rgb(1,18,174);"/>
                <path d="M1238.29,162.615C1238.21,161.394 1238.07,159.986 1237.9,158.485C1236.94,150.147 1234.78,139.166 1234.78,139.166C1234.62,138.453 1235.07,137.745 1235.78,137.585C1236.49,137.425 1237.2,137.873 1237.36,138.585C1237.36,138.585 1240.14,149.587 1241.52,157.981C1241.75,159.408 1241.94,160.766 1242.07,161.995C1244.29,161.657 1246.63,161.338 1248.98,161.019C1252.98,160.473 1257.02,159.919 1260.55,159.193C1263.18,158.651 1265.51,158.036 1267.27,157.213C1267.88,156.926 1268.44,156.667 1268.85,156.357L1266.62,143.928C1265.59,138.466 1265.39,136.305 1265.44,135.777C1265.54,134.694 1266.15,134.275 1266.43,134.08C1267,133.684 1268.75,133.136 1269.75,135.063C1270.13,135.794 1270.79,138.498 1270.8,138.875C1270.8,138.807 1270.77,138.506 1270.77,138.506C1270.77,138.506 1270.91,138.98 1271.05,139.413C1271.75,141.619 1273.34,146.375 1274.13,150.402C1274.63,152.975 1274.75,155.3 1274.4,156.744C1274.15,157.74 1273.64,158.672 1272.85,159.519C1273.84,167.213 1274.54,173.168 1274.54,173.168C1274.65,173.891 1274.14,174.561 1273.42,174.665C1272.7,174.769 1272.03,174.267 1271.92,173.544L1269.81,161.733C1268.71,162.3 1267.42,162.809 1265.97,163.253C1261.33,164.674 1254.99,165.529 1248.79,166.27C1246.52,166.541 1244.26,166.793 1242.13,167.061C1242.13,167.066 1242.13,167.072 1242.13,167.077C1241.81,168.703 1240.4,170.063 1238.33,170.906C1235.22,172.171 1230.57,172.219 1228.54,171.534C1227.13,171.057 1226.48,170.104 1226.26,169.322C1226.08,168.639 1226.14,167.876 1226.65,167.063C1227.07,166.387 1228.3,165.36 1230.95,164.398C1232.88,163.703 1235.42,163.128 1238.29,162.615ZM1230.7,169.385C1230.42,169.493 1230.27,169.608 1230.38,169.754C1230.56,169.978 1230.65,169.701 1230.7,169.385ZM1230.58,167.841C1230.49,167.634 1230.2,166.934 1230.08,167.255C1229.96,167.573 1230.17,167.755 1230.58,167.841ZM1266.14,137.68C1266.07,137.259 1265.98,136.931 1265.81,137.01C1265.36,137.22 1265.68,137.474 1266.14,137.68Z" style="fill:rgb(1,18,174);"/>
                <path d="M1322.39,155.658C1322.39,155.675 1322.4,155.686 1322.42,155.687C1323,155.707 1322.11,154.223 1321.65,153.167C1320.62,150.83 1318.88,147.91 1316.97,145.426C1315.62,143.678 1314.23,142.13 1312.93,141.202C1312.35,140.786 1311.85,140.437 1311.38,140.437C1310.52,140.47 1309.79,139.797 1309.76,138.936C1309.73,138.074 1310.4,137.348 1311.26,137.314C1312.42,137.223 1313.87,137.767 1315.43,138.84C1317.36,140.175 1319.52,142.401 1321.44,144.819C1323.74,147.702 1325.67,150.876 1326.53,153.124C1327.12,154.633 1327.18,155.896 1327,156.695C1326.51,158.816 1325.11,161.142 1321.14,162.923C1319.21,163.787 1316.57,164.549 1312.95,165.011C1310.7,165.298 1308.05,165.442 1304.94,165.478C1299.4,165.458 1296.44,162.768 1295.1,158.846C1294.13,155.997 1294.09,152.404 1294.59,148.851C1295.56,142.007 1298.34,135.352 1298.34,135.352C1298.64,134.544 1299.54,134.133 1300.35,134.435C1301.16,134.736 1301.57,135.637 1301.27,136.445C1301.27,136.445 1297.76,147.06 1298.89,154.609C1299.2,156.702 1299.86,158.539 1301.39,159.55C1302.26,160.12 1303.4,160.352 1304.85,160.3C1310.53,160.212 1314.53,159.659 1317.35,158.878C1320.55,157.991 1321.96,156.957 1322.39,155.658ZM1322.39,155.658C1322.39,155.621 1322.42,155.557 1322.43,155.524C1322.42,155.569 1322.41,155.614 1322.39,155.658Z" style="fill:rgb(1,18,174);"/>
                <path d="M1371.54,126.749C1372.26,126.792 1372.82,127.418 1372.78,128.146C1372.74,128.875 1372.11,129.432 1371.38,129.39C1371.38,129.39 1361.51,129.323 1355.07,130.926C1353.38,131.347 1350.5,131.934 1351.29,132.596C1351.32,132.625 1351.39,132.669 1351.39,132.669C1351.39,132.669 1351.48,132.837 1351.54,132.928C1351.77,133.302 1352.13,133.684 1352.6,134.119C1355.5,136.917 1357.95,138.864 1359.97,140.367C1364.05,143.397 1366.6,144.494 1368.36,145.853C1369.16,146.48 1369.85,147.152 1370.42,148.006C1371.4,149.482 1371.53,151.475 1370.71,153.389C1369.8,155.522 1367.87,157.501 1365.99,158.08C1363.89,158.71 1359.47,159.92 1355.47,159.779C1352.58,159.678 1349.92,158.927 1348.27,157.022C1347.77,156.494 1347.79,155.656 1348.32,155.152C1348.84,154.649 1349.68,154.669 1350.18,155.197C1351.46,156.416 1353.41,156.602 1355.43,156.488C1358.99,156.286 1362.8,154.86 1364.61,154.139C1365.15,153.925 1365.61,153.349 1365.99,152.753C1366.23,152.38 1366.41,151.966 1366.52,151.559C1366.61,151.274 1366.69,150.987 1366.54,150.783C1365.72,149.706 1364.57,149.26 1362.99,148.413C1361.19,147.446 1358.87,146.202 1355.9,143.903C1353.92,142.375 1351.69,140.348 1349.07,137.678C1346.91,135.402 1346.35,133.461 1346.58,131.979C1346.88,130.098 1348.41,128.4 1351.15,127.494C1353.84,126.602 1357.78,126.257 1361.53,126.243C1366.76,126.223 1371.54,126.749 1371.54,126.749Z" style="fill:rgb(1,18,174);"/>
                <path d="M1432.77,137.368C1432.64,135.842 1432.54,134.263 1432.48,132.684C1432.33,128.442 1432.48,124.216 1433.24,121.001C1433.38,120.285 1434.08,119.818 1434.79,119.96C1435.51,120.101 1435.98,120.797 1435.83,121.513C1435.35,124.557 1435.53,128.499 1435.94,132.441C1436.26,135.469 1436.73,138.49 1437.2,141.103C1438.92,142.88 1440.16,144.484 1440.16,144.484C1440.74,145.208 1440.85,146.205 1440.43,147.035L1438.63,150.413C1438.19,151.277 1437.26,151.773 1436.3,151.65C1435.35,151.527 1434.57,150.812 1434.37,149.867C1434.37,149.867 1433.97,147.684 1433.53,144.42C1433.04,143.956 1432.5,143.484 1431.95,143.04C1430.97,142.242 1429.95,141.518 1429.02,141.271C1428.98,141.259 1428.92,141.238 1428.87,141.22C1428.89,141.208 1428.9,141.195 1428.89,141.183C1428.85,141.137 1428.82,141.15 1428.78,141.192C1428.74,141.186 1428.71,141.193 1428.71,141.226C1428.71,141.239 1428.72,141.247 1428.73,141.252C1428.67,141.351 1428.6,141.502 1428.54,141.583C1428.37,141.809 1428.2,142.052 1428.03,142.296C1427.51,143.006 1426.94,143.718 1426.19,144.311C1425.53,144.838 1424.76,145.28 1423.79,145.557C1421.56,146.199 1420.65,146.672 1419.5,146.684C1418.48,146.694 1417.23,146.421 1414.87,145.38C1414.56,145.252 1414.29,145.066 1414.05,144.833C1411.27,141.909 1408.2,140.788 1405.27,140.799C1401.54,140.814 1398.05,142.474 1395.68,144.45C1394.63,145.315 1395.02,146.464 1395.66,147.568C1397.47,150.643 1401.49,153.522 1401.49,153.522C1402.1,153.923 1402.27,154.744 1401.87,155.354C1401.47,155.963 1400.65,156.133 1400.04,155.732C1400.04,155.732 1393.69,151.767 1391.95,147.775C1391.01,145.63 1391.21,143.494 1393.17,141.627C1396.03,138.911 1400.38,136.533 1405.13,136.254C1409.07,136.022 1413.29,137.256 1417.24,140.858C1418.31,141.286 1418.88,141.5 1419.39,141.483C1420.19,141.458 1420.77,140.985 1422.31,140.52C1423.23,140.247 1423.57,139.453 1424,138.862C1424.54,138.116 1425.09,137.45 1425.74,136.973C1426.89,136.131 1428.31,135.635 1430.45,136.275C1431.18,136.498 1431.97,136.878 1432.77,137.368ZM1428.87,141.22C1428.84,141.245 1428.77,141.264 1428.73,141.252C1428.75,141.229 1428.76,141.208 1428.78,141.192C1428.81,141.197 1428.84,141.207 1428.87,141.22Z" style="fill:rgb(1,18,174);"/>
                <path d="M1244.26,129.257C1243.53,129.336 1242.88,128.812 1242.8,128.086C1242.72,127.361 1243.25,126.707 1243.97,126.628C1243.97,126.628 1260.49,124.434 1283.83,121.646C1292,120.67 1301,119.615 1310.43,118.591C1319.06,117.654 1328.05,116.714 1337.07,115.874C1343.02,115.32 1348.98,114.829 1354.86,114.365C1367.98,113.333 1380.69,112.472 1391.99,111.841C1408.52,110.917 1422.01,110.532 1429.3,110.896C1430.03,110.919 1430.61,111.53 1430.58,112.259C1430.56,112.989 1429.95,113.562 1429.22,113.54C1421.98,113.449 1408.63,114.415 1392.28,115.868C1383.17,116.678 1373.13,117.664 1362.7,118.675C1353.03,119.611 1343.03,120.617 1333.12,121.538C1320.86,122.676 1308.75,123.72 1297.59,124.688C1267.41,127.305 1244.26,129.257 1244.26,129.257Z" style="fill:rgb(1,18,174);"/>
                <path d="M1114.65,163.582C1114.4,162.558 1114.2,161.61 1114.05,160.762C1113.59,158.098 1113.65,156.602 1113.82,155.895C1114.07,154.91 1114.61,154.42 1115.06,154.121C1115.89,153.57 1116.98,153.454 1118.18,154.25C1118.63,154.553 1119.21,155.175 1119.77,155.954C1120.53,157.036 1121.32,158.508 1121.57,158.885C1122.1,159.664 1122.37,160.846 1122.27,162.22C1122.15,163.843 1121.51,165.835 1120.89,167.146C1120.69,167.567 1120.47,167.93 1120.25,168.235C1120.56,169.494 1120.9,170.79 1121.26,172.095C1123.66,180.966 1126.67,190.145 1126.67,190.145C1126.92,190.83 1126.57,191.591 1125.89,191.843C1125.2,192.096 1124.44,191.745 1124.19,191.06C1124.19,191.06 1120.49,182.026 1117.52,173.228C1117.09,171.938 1116.67,170.653 1116.28,169.402C1115.45,169.117 1113.1,168.424 1109.79,168.437C1107.72,168.445 1105.3,168.705 1102.64,169.533C1100.58,170.155 1099,170.667 1097.77,171.128C1097.94,172.918 1098.3,177.067 1098.29,180.459C1098.28,182.518 1098.09,184.316 1097.76,185.309C1097.31,186.641 1096.38,187.117 1095.62,187.211C1095.04,187.284 1094.32,187.123 1093.56,186.407C1091.75,184.704 1090.19,181.948 1089.4,179.252C1088.75,176.994 1088.72,174.77 1089.32,173.112C1089.99,171.221 1090.5,170.036 1092.01,168.801C1093.4,167.668 1095.89,166.509 1101.08,164.716C1104.29,163.638 1107.23,163.232 1109.74,163.195C1111.64,163.167 1113.29,163.342 1114.65,163.582ZM1095.1,172.388C1094.16,173.036 1093.94,173.712 1093.51,174.739C1093.02,175.895 1093.25,177.568 1093.77,179.204C1094.04,180.077 1094.4,180.945 1094.82,181.736C1095.16,178.943 1095.15,174.81 1095.1,172.388ZM1115.58,158.319C1115.5,158.157 1115.41,158.064 1115.33,158.15C1115.31,158.178 1115.39,158.192 1115.42,158.212C1115.47,158.252 1115.53,158.288 1115.58,158.319Z" style="fill:rgb(1,18,174);"/>
                <path d="M1143.32,156.282C1143.23,155.558 1143.74,154.893 1144.46,154.798C1145.18,154.703 1145.85,155.214 1145.94,155.938C1145.94,155.938 1147.28,161.459 1148.58,168.634C1149.06,171.32 1149.56,174.228 1149.89,177.163C1150.23,180.097 1150.38,183.045 1150.51,185.783C1150.82,192.478 1150.72,197.902 1150.39,199.138C1150.25,199.855 1149.56,200.326 1148.84,200.19C1148.12,200.053 1147.65,199.36 1147.79,198.643C1147.91,197.592 1147.16,193.577 1146.28,188.378C1146,186.707 1145.7,184.929 1145.41,183.083C1145.14,181.347 1144.85,179.565 1144.65,177.771C1144.31,174.847 1144.1,171.918 1143.92,169.205C1143.45,161.946 1143.32,156.282 1143.32,156.282Z" style="fill:rgb(1,18,174);"/>
            </g>
        </g>
    </g>
</svg>
